<?xml version="1.0" encoding="UTF-8"?> <svg xmlns="http://www.w3.org/2000/svg" xmlns:xlink="http://www.w3.org/1999/xlink" version="1.1" id="Calque_1" x="0px" y="0px" viewBox="0 0 300 108.2" style="enable-background:new 0 0 300 108.2;" xml:space="preserve"> <g> <g> <path d="M90.2,103H66.9V63.2L33.5,103H5.2l42.1-50L6.5,4.7h27.8l32.6,38.1V4.7h23.3V103z"></path> </g> <g> <path d="M218.3,4.8h37.3c5,0,9.7,0.8,13.9,2.4c4.2,1.6,7.9,3.8,11,6.6s5.5,6.2,7.2,10.1c1.7,3.9,2.6,8.2,2.6,12.9 c0,6.4-1.6,12-4.7,16.9s-7.6,8.7-13.3,11.5l21.9,38h-25.4l-19.1-34.7h-8v34.7h-23.3V4.8H218.3z M241.6,49.6h10.9 c4.1,0,7.4-1.2,10.1-3.7c2.6-2.5,3.9-5.6,3.9-9.3c0-3.9-1.3-7-3.9-9.4s-6-3.6-10.1-3.6h-10.9V49.6z"></path> </g> <g> <path d="M129.4,18.9h5.9l41.2,59v-59h6.4v69.9H177l-41.2-59v59h-6.4L129.4,18.9L129.4,18.9z"></path> </g> </g> </svg> 